# xmcd CD database file
#
# Track frame offsets:
#	150
#	21697
#	42693
#	72553
#	97869
#	115588
#	130354
#	158241
#	181557
#	202583
#	217257
#	232832
#	268459
#	287173
#	301586
#	314612
#	325276
#
# Disc length: 4578 seconds
#
# Revision: 0
# Processed by: cddbd v1.5.1PL0 Copyright (c) Steve Scherf et al.
# Submitted via: CDex 1.50
#
DISCID=fb11e011
DTITLE=www.oz24.com(OBS) - FUSION POPS-Jazz Collection Vol.1
DYEAR=1900
DGENRE=Jazz
TTITLE0=The Look of Love
TTITLE1=Querer
TTITLE2=Overjoyed
TTITLE3=Spain
TTITLE4=Yo Vengo Ofrecer micorazon
TTITLE5=Change
TTITLE6=The Quiet Earth
TTITLE7=Don't Hide Your Light
TTITLE8=Gadd a Tda?
TTITLE9=Cobra Coral
TTITLE10=Arioso
TTITLE11=리베트 탱고
TTITLE12=Parole, Parole
TTITLE13=L'amour reve 사랑의 품 안에서
TTITLE14=Corcovado
TTITLE15=What a Wonderful World
TTITLE16=Insensatez
EXTD=
EXTT0=
EXTT1=
EXTT2=
EXTT3=
EXTT4=
EXTT5=
EXTT6=
EXTT7=
EXTT8=
EXTT9=
EXTT10=
EXTT11=
EXTT12=
EXTT13=
EXTT14=
EXTT15=
EXTT16=
PLAYORDER=
